<svg xmlns="http://www.w3.org/2000/svg" xmlns:xlink="http://www.w3.org/1999/xlink" style="fill-rule:evenodd;clip-rule:evenodd;stroke-linejoin:round;stroke-miterlimit:2" width="100%" height="100%" version="1.1" viewBox="0 0 1000 1000" xml:space="preserve"><g id="Logo---Speaker.bot" transform="matrix(3.81568,0,0,4.15578,-117.074,-170.253)"><g><path style="fill:#222;fill-rule:nonzero;stroke:url(#_Linear1);stroke-width:.31px" d="M12 2a3 3 0 0 1 3 3v6a3 3 0 0 1-3 3a3 3 0 0 1-3-3V5a3 3 0 0 1 3-3m7 9c0 3.53-2.61 6.44-6 6.93V21h-2v-3.07c-3.39-.49-6-3.4-6-6.93h2a5 5 0 0 0 5 5a5 5 0 0 0 5-5h2Z" transform="matrix(9.75647,0,0,8.5376,5.61916,36.7847)"/></g><defs><linearGradient id="_Linear1" x1="0" x2="1" y1="0" y2="0" gradientTransform="matrix(26.0001,0,0,23.8497,2.99989,17.9248)" gradientUnits="userSpaceOnUse"><stop style="stop-color:#a257ed;stop-opacity:1" offset="0"/><stop style="stop-color:#00dbff;stop-opacity:1" offset="1"/></linearGradient></defs></g></svg>